{
    "asset" : {
        "generator" : "Khronos glTF Blender I/O v3.2.43",
        "version" : "2.0"
    },
    "scene" : 0,
    "scenes" : [
        {
            "name" : "Scene",
            "nodes" : [
                1
            ]
        }
    ],
    "nodes" : [
        {
            "mesh" : 0,
            "name" : "donkey.1"
        },
        {
            "children" : [
                0
            ],
            "name" : "RootNode.0"
        }
    ],
    "materials" : [
        {
            "doubleSided" : true,
            "name" : "Material_0",
            "occlusionTexture" : {
                "index" : 0
            },
            "pbrMetallicRoughness" : {}
        }
    ],
    "meshes" : [
        {
            "name" : "Mesh_0",
            "primitives" : [
                {
                    "attributes" : {
                        "POSITION" : 0,
                        "NORMAL" : 1,
                        "TEXCOORD_0" : 2
                    },
                    "indices" : 3,
                    "material" : 0
                }
            ]
        }
    ],
    "textures" : [
        {
            "sampler" : 0,
            "source" : 0
        }
    ],
    "images" : [
        {
            "bufferView" : 4,
            "mimeType" : "image/png",
            "name" : "Image_2"
        }
    ],
    "accessors" : [
        {
            "bufferView" : 0,
            "componentType" : 5126,
            "count" : 19401,
            "max" : [
                1.2660367488861084,
                8.266456604003906,
                5.801529884338379
            ],
            "min" : [
                -1.5059913396835327,
                -0.0026889443397521973,
                -4.6490044593811035
            ],
            "type" : "VEC3"
        },
        {
            "bufferView" : 1,
            "componentType" : 5126,
            "count" : 19401,
            "type" : "VEC3"
        },
        {
            "bufferView" : 2,
            "componentType" : 5126,
            "count" : 19401,
            "type" : "VEC2"
        },
        {
            "bufferView" : 3,
            "componentType" : 5123,
            "count" : 100545,
            "type" : "SCALAR"
        }
    ],
    "bufferViews" : [
        {
            "buffer" : 0,
            "byteLength" : 232812,
            "byteOffset" : 0
        },
        {
            "buffer" : 0,
            "byteLength" : 232812,
            "byteOffset" : 232812
        },
        {
            "buffer" : 0,
            "byteLength" : 155208,
            "byteOffset" : 465624
        },
        {
            "buffer" : 0,
            "byteLength" : 201090,
            "byteOffset" : 620832
        },
        {
            "buffer" : 0,
            "byteLength" : 1889980,
            "byteOffset" : 821924
        }
    ],
    "samplers" : [
        {
            "magFilter" : 9729,
            "minFilter" : 9987
        }
    ],
    "buffers" : [
        {
            "byteLength" : 2711904,
            "uri" : "data:application/octet-stream;base64,"
        }
    ]
}
