{
    "asset" : {
        "generator" : "Khronos glTF Blender I/O v3.2.43",
        "version" : "2.0"
    },
    "scene" : 0,
    "scenes" : [
        {
            "name" : "Scene",
            "nodes" : [
                1
            ]
        }
    ],
    "nodes" : [
        {
            "mesh" : 0,
            "name" : "schnauzer.1"
        },
        {
            "children" : [
                0
            ],
            "name" : "RootNode.0",
            "scale" : [
                0.10000000149011612,
                0.10000000149011612,
                0.10000000149011612
            ]
        }
    ],
    "materials" : [
        {
            "doubleSided" : true,
            "name" : "Material_0",
            "pbrMetallicRoughness" : {}
        }
    ],
    "meshes" : [
        {
            "name" : "Mesh_0",
            "primitives" : [
                {
                    "attributes" : {
                        "POSITION" : 0,
                        "NORMAL" : 1,
                        "TEXCOORD_0" : 2
                    },
                    "indices" : 3,
                    "material" : 0
                }
            ]
        }
    ],
    "accessors" : [
        {
            "bufferView" : 0,
            "componentType" : 5126,
            "count" : 27525,
            "max" : [
                2.2391293048858643,
                9.288346290588379,
                7.48747444152832
            ],
            "min" : [
                -1.9685735702514648,
                -0.0031500000040978193,
                -4.208876609802246
            ],
            "type" : "VEC3"
        },
        {
            "bufferView" : 1,
            "componentType" : 5126,
            "count" : 27525,
            "type" : "VEC3"
        },
        {
            "bufferView" : 2,
            "componentType" : 5126,
            "count" : 27525,
            "type" : "VEC2"
        },
        {
            "bufferView" : 3,
            "componentType" : 5123,
            "count" : 155946,
            "type" : "SCALAR"
        }
    ],
    "bufferViews" : [
        {
            "buffer" : 0,
            "byteLength" : 330300,
            "byteOffset" : 0
        },
        {
            "buffer" : 0,
            "byteLength" : 330300,
            "byteOffset" : 330300
        },
        {
            "buffer" : 0,
            "byteLength" : 220200,
            "byteOffset" : 660600
        },
        {
            "buffer" : 0,
            "byteLength" : 311892,
            "byteOffset" : 880800
        }
    ],
    "buffers" : [
        {
            "byteLength" : 1192692,
            "uri" : "data:application/octet-stream;base64,"
        }
    ]
}
