<?xml version="1.0" standalone="no"?><!DOCTYPE svg PUBLIC "-//W3C//DTD SVG 1.1//EN" "http://www.w3.org/Graphics/SVG/1.1/DTD/svg11.dtd"><svg t="1658385207813" class="icon" viewBox="0 0 1024 1024" version="1.1" xmlns="http://www.w3.org/2000/svg" p-id="2349" xmlns:xlink="http://www.w3.org/1999/xlink" width="32" height="32"><defs><style type="text/css">@font-face { font-family: feedback-iconfont; src: url("//at.alicdn.com/t/font_1031158_u69w8yhxdu.woff2?t=1630033759944") format("woff2"), url("//at.alicdn.com/t/font_1031158_u69w8yhxdu.woff?t=1630033759944") format("woff"), url("//at.alicdn.com/t/font_1031158_u69w8yhxdu.ttf?t=1630033759944") format("truetype"); }
</style></defs><path d="M879.1 297.8L511.3 479.3 143.5 297.8c-20.2-10.7-18.9-36.1 1.3-45.4l339.6-148.2c16.6-8 35.9-8 52.5 0L876.4 251c23 10.7 23 36.1 2.7 46.8zM437.2 921.2L126 753c-18.8-9.3-29.6-25.4-29.6-44V371.2c0-20 25.6-32.1 44.5-21.4l346 174.8v377.2c1.2 18.7-26.1 34-49.7 19.4z m149.6 0L898.1 753c17.5-9.3 28.3-25.4 28.3-44V371.2c0-20-25.6-32.1-44.5-21.4L533.1 524.4v377.1c0 20 28.1 36.5 53.6 19.7h0.1z" p-id="2350" fill="#2b81fa"></path></svg>